Coordinates
version=1
nRows=11
nColumns=40
inDegrees=yes

Units are S.I. units (second, meters, Newtons, ...)
Angles are in degrees.

endheader
time	pelvis_tilt	pelvis_list	pelvis_rotation	pelvis_tx	pelvis_ty	pelvis_tz	hip_flexion_r	hip_adduction_r	hip_rotation_r	knee_angle_r	knee_angle_r_beta	ankle_angle_r	subtalar_angle_r	mtp_angle_r	hip_flexion_l	hip_adduction_l	hip_rotation_l	knee_angle_l	knee_angle_l_beta	ankle_angle_l	subtalar_angle_l	mtp_angle_l	lumbar_extension	lumbar_bending	lumbar_rotation	arm_flex_r	arm_add_r	arm_rot_r	elbow_flex_r	pro_sup_r	wrist_flex_r	wrist_dev_r	arm_flex_l	arm_add_l	arm_rot_l	elbow_flex_l	pro_sup_l	wrist_flex_l	wrist_dev_l
     16.04000000	     -3.43714698	     -6.69840681	     -0.16939844	      0.78813228	      0.92605907	      0.48105483	     15.35734991	      3.93277092	    -14.14555338	     17.38427640	     17.38427640	      6.86700975	     -2.04049264	     -5.87100031	     22.79299538	    -11.45638849	      3.25565891	     66.54664767	     66.54664767	      4.15607671	    -14.52990959	      3.15048347	    -10.16319100	      8.84790213	      2.61520801	     14.70996022	    -14.15562840	     -8.38909970	     39.53371369	     45.63541293	      0.00000000	      0.00000000	      6.62569471	     -9.55791408	     -5.05278656	     40.23090491	     45.42438767	      0.00000000	      0.00000000
     16.05307143	     -3.65077371	     -6.66525429	      0.16953003	      0.78709346	      0.92665081	      0.48189936	     14.92498741	      4.00117203	    -14.23972752	     16.91197307	     16.91197307	      7.02759017	     -2.17179232	     -5.90531316	     24.72548845	    -11.28500570	      3.86153323	     66.66460219	     66.66460219	      4.15392445	    -15.88831258	      3.70006333	    -10.06822916	      8.57683323	      2.21040733	     16.91235875	    -13.98831980	     -8.43953252	     40.75430947	     45.60732333	      0.00000000	      0.00000000	      5.61061504	     -9.25090073	     -4.82184931	     38.55515889	     45.39026221	      0.00000000	      0.00000000
     16.06614286	     -3.77489983	     -6.61794726	      0.46158929	      0.78613278	      0.92733867	      0.48276627	     14.37657583	      4.06661440	    -14.32785875	     16.40450028	     16.40450028	      7.11334024	     -2.22090756	     -6.14077567	     26.51170225	    -11.19098497	      4.24352808	     66.65823925	     66.65823925	      4.92931527	    -16.64525878	      5.95965087	    -10.08038879	      8.31187682	      2.30996475	     18.48043461	    -14.28181351	     -7.93709640	     43.09775893	     45.51404296	      0.00000000	      0.00000000	      5.77276999	     -8.64586711	     -4.50332807	     34.44505174	     45.40782120	      0.00000000	      0.00000000
     16.07921429	     -3.89929291	     -6.58902939	      0.70301102	      0.78516038	      0.92789208	      0.48364125	     13.88867867	      4.14671261	    -14.36862594	     16.01162316	     16.01162316	      7.35559251	     -2.23456876	     -6.09417874	     28.12437329	    -11.24069434	      4.38167926	     66.18290421	     66.18290421	      5.04244861	    -17.42886051	      6.25712064	    -10.15768080	      8.03146923	      2.54742997	     20.42665760	    -14.60814848	     -8.04577089	     44.20775558	     45.49083564	      0.00000000	      0.00000000	      4.83079283	     -8.18659863	     -4.36311079	     33.78357440	     45.37857971	      0.00000000	      0.00000000
     16.09228571	     -4.02567528	     -6.65650372	      1.14178223	      0.78422774	      0.92850392	      0.48424451	     13.18700640	      4.36470211	    -14.55068729	     15.17045509	     15.17045509	      7.45319064	     -2.26998130	     -5.84949919	     29.69887312	    -11.15811334	      4.81957608	     65.32050900	     65.32050900	      5.36403034	    -18.34391242	      7.43077833	    -10.18269089	      7.93037078	      1.47311009	     22.53897922	    -13.96019062	     -7.97659580	     46.61272589	     45.41110788	      0.00000000	      0.00000000	      3.66128636	     -8.11152635	     -4.08395053	     31.89157258	     45.33549760	      0.00000000	      0.00000000
     16.10535714	     -4.14836321	     -6.59351942	      1.44286177	      0.78321430	      0.92899237	      0.48465177	     12.68288278	      4.38625642	    -14.61734099	     14.71830703	     14.71830703	      7.66632347	     -2.29291895	     -5.68689937	     31.20413275	    -10.97582412	      4.97307451	     64.23534456	     64.23534456	      7.11698410	    -18.48600326	     11.76057124	    -10.30081899	      7.70577718	      2.12615086	     22.95129260	    -14.88319780	     -7.34425000	     51.04375149	     45.24021106	      0.00000000	      0.00000000	      4.11232612	     -7.50600534	     -3.43450663	     28.31128133	     45.31495459	      0.00000000	      0.00000000
     16.11842857	     -4.26515893	     -6.58005849	      1.78411780	      0.78226795	      0.92944681	      0.48492814	     12.10201921	      4.47283940	    -14.73950106	     14.11992138	     14.11992138	      7.81776246	     -2.27708265	     -5.55879374	     32.40186978	    -10.92319264	      4.92192259	     62.33525428	     62.33525428	      7.62056914	    -18.75303116	     12.28938332	    -10.38935408	      7.52212637	      1.76906780	     24.80330939	    -14.73185809	     -7.51232858	     52.82422027	     45.19762896	      0.00000000	      0.00000000	      3.13164844	     -7.26914806	     -3.23863133	     27.34525540	     45.28127206	      0.00000000	      0.00000000
     16.13150000	     -4.40284849	     -6.51826653	      2.11508415	      0.78132844	      0.92979507	      0.48492803	     11.56599275	      4.48754085	    -14.85203416	     13.56750411	     13.56750411	      7.99859496	     -2.28403947	     -5.44022104	     33.42134967	    -10.72431197	      4.81512787	     59.92790206	     59.92790206	      8.27669928	    -18.89459296	     12.98161579	    -10.45579747	      7.32044916	      1.51140906	     26.42524493	    -14.67205735	     -7.63804945	     54.99211842	     45.13942487	      0.00000000	      0.00000000	      2.29400893	     -7.01019696	     -2.99468633	     26.33517152	     45.24306215	      0.00000000	      0.00000000
     16.14457143	     -4.56417340	     -6.42842536	      2.44455468	      0.78033876	      0.93002487	      0.48461064	     11.10142085	      4.43158440	    -14.94501711	     13.10278566	     13.10278566	      8.20196515	     -2.24937342	     -5.36881287	     34.24373774	    -10.36929519	      4.71899907	     57.00276634	     57.00276634	      8.96472058	    -18.89811625	     13.53937441	    -10.54303908	      7.17009363	      1.38387324	     27.78081411	    -14.69092966	     -7.76574902	     57.39564186	     45.07292590	      0.00000000	      0.00000000	      1.54851935	     -6.76454001	     -2.72877957	     25.42013353	     45.20175631	      0.00000000	      0.00000000
     16.15764286	     -4.79641408	     -6.32936091	      2.75612663	      0.77939274	      0.93005533	      0.48412061	     10.76721045	      4.32354849	    -15.23072073	     12.75305001	     12.75305001	      8.41467790	     -2.10703114	     -5.30861359	     34.92491515	     -9.92782840	      4.60842500	     53.63788724	     53.63788724	      9.52495243	    -18.80997800	     13.81073322	    -10.55316571	      6.93318132	      2.10553805	     27.80692348	    -15.62946520	     -8.25386529	     62.26620174	     44.95190475	      0.00000000	      0.00000000	      1.41667602	     -6.37624102	     -1.89541651	     24.27780521	     45.10501480	      0.00000000	      0.00000000
     16.17071429	     -4.97192086	     -6.16005131	      3.06301571	      0.77853704	      0.93014023	      0.48334028	     10.38601173	      4.13540474	    -15.31979126	     12.45058052	     12.45058052	      8.63861261	     -2.16453192	     -5.30315655	     35.24820991	     -9.29240381	      4.56974912	     49.81339709	     49.81339709	      9.99792306	    -18.58575704	     13.85513905	    -10.56504657	      6.67930010	      1.92105767	     29.37267798	    -15.56171146	     -8.48952547	     63.81633514	     44.92033607	      0.00000000	      0.00000000	      0.60277093	     -6.17587418	     -1.69083054	     23.78689338	     45.06219895	      0.00000000	      0.00000000
